<?xml version="1.0" encoding="UTF-8"?>
<svg viewBox="0 0 35 35" version="1.1" xmlns="http://www.w3.org/2000/svg" xmlns:xlink="http://www.w3.org/1999/xlink">
    <defs>
        <linearGradient x1="37.927449%" y1="-5.67%" x2="91.0851347%" y2="94.33%" id="linearGradient-1">
            <stop stop-color="#0087C1" offset="0%"></stop>
            <stop stop-color="#8CC100" offset="100%"></stop>
        </linearGradient>
    </defs>
    <g id="Page-1" stroke="none" stroke-width="1" fill="none" fill-rule="evenodd">
        <g id="logo-svg" fill="url(#linearGradient-1)" fill-rule="nonzero">
            <path d="M0,0 L20.5,0 L21.6796875,0.0765625 C22.8375,0.15625 23.925,0.25 24.9,0.4 C26.7,0.7 28.4,1.3 29.9,2.2 C31.5,3.1 32.7,4.3 33.6,5.8 C34.2,6.8 34.6,7.9 34.8,9.2 L34.85,10.05 C34.875,10.55 34.9,11.2 34.9,11.8 L34.8933081,12.3570054 C34.8709141,13.3199446 34.8,14.1 34.8,14.1 C34.6,15.9 34,17.5 32.8,18.9 C31.1,20.9 26,22.5 25.7,22.5 L26.7958161,24.0406341 C30.0128725,28.5323359 32.5964025,31.8522338 34.5464061,34.0003279 C35,34.5 35,35 34.2,35 L22.5,35 L8.3,15.3 L23.1,15.3 C25.1,15.3 26.7,13.7 26.7,11.6 C26.7,9.5 25,7.9 23.1,7.9 L3,7.9 L0,3.9 L0,1.955 L21,1 L0,1 L0,0 Z" id="Path"></path>
        </g>
    </g>
</svg>